<?xml version="1.0" encoding="utf-8"?>
<!-- Generator: Adobe Illustrator 25.0.0, SVG Export Plug-In . SVG Version: 6.00 Build 0)  -->
<svg version="1.1" id="factoryImage" xmlns="http://www.w3.org/2000/svg" xmlns:xlink="http://www.w3.org/1999/xlink" x="0px"
	 y="0px" viewBox="0 0 2426 1395" style="enable-background:new 0 0 2426 1395;" xml:space="preserve">
<style type="text/css">
	.st0{fill:#759370;stroke:#000000;}
	.st1{fill:#F8F0DB;stroke:#000000;stroke-miterlimit:10;}
	.st2{fill:#FFFFFF;stroke:#000000;stroke-miterlimit:10;}
	.st3{fill:#AFDCD1;stroke:#000000;stroke-miterlimit:10;}
	.st4{fill:#EEB8B9;stroke:#000000;stroke-miterlimit:10;}
</style>
<g id="Building">
	<path class="st0" d="M1358.3,1036.3c75-27.5,390-26.1,533.7-26.1V1191h-745.8c-15.4,0-22.8-20-9.8-31.3
		c15.4-13.5,38.5-26.6,71.2-32.6C1283.8,1113.1,1264.5,1070.7,1358.3,1036.3z"/>
	<path class="st1" d="M1723.1,880.6h-357.5v203.6h357.5V880.6z"/>
	<path class="st2" d="M1417.2,933.5H1391v18.3h26.2V933.5z"/>
	<path class="st2" d="M1448.9,933.5h-26.2v18.3h26.2V933.5z"/>
	<path class="st2" d="M1480.5,933.5h-26.2v18.3h26.2V933.5z"/>
	<path class="st2" d="M1525.9,933.5h-26.2v18.3h26.2V933.5z"/>
	<path class="st2" d="M1557.5,933.5h-26.2v18.3h26.2V933.5z"/>
	<path class="st2" d="M1589.1,933.5h-26.2v18.3h26.2V933.5z"/>
	<path class="st2" d="M1634.5,933.5h-26.2v18.3h26.2V933.5z"/>
	<path class="st2" d="M1666.1,933.5h-26.2v18.3h26.2V933.5z"/>
	<path class="st2" d="M1697.7,933.5h-26.2v18.3h26.2V933.5z"/>
	<path class="st2" d="M1417.2,980.7H1391V999h26.2V980.7z"/>
	<path class="st2" d="M1448.9,980.7h-26.2V999h26.2V980.7z"/>
	<path class="st2" d="M1480.5,980.7h-26.2V999h26.2V980.7z"/>
	<path class="st2" d="M1525.9,980.7h-26.2V999h26.2V980.7z"/>
	<path class="st2" d="M1557.5,980.7h-26.2V999h26.2V980.7z"/>
	<path class="st2" d="M1589.1,980.7h-26.2V999h26.2V980.7z"/>
	<path class="st2" d="M1634.5,980.7h-26.2V999h26.2V980.7z"/>
	<path class="st2" d="M1666.1,980.7h-26.2V999h26.2V980.7z"/>
	<path class="st2" d="M1697.7,980.7h-26.2V999h26.2V980.7z"/>
	<path class="st2" d="M1417.2,1031.4H1391v18.3h26.2V1031.4z"/>
	<path class="st2" d="M1448.9,1031.4h-26.2v18.3h26.2V1031.4z"/>
	<path class="st2" d="M1480.5,1031.4h-26.2v18.3h26.2V1031.4z"/>
	<path class="st2" d="M1525.9,1031.4h-26.2v18.3h26.2V1031.4z"/>
	<path class="st2" d="M1557.5,1031.4h-26.2v18.3h26.2V1031.4z"/>
	<path class="st2" d="M1589.1,1031.4h-26.2v18.3h26.2V1031.4z"/>
	<path class="st2" d="M1634.5,1031.4h-26.2v18.3h26.2V1031.4z"/>
	<path class="st2" d="M1666.1,1031.4h-26.2v18.3h26.2V1031.4z"/>
	<path class="st2" d="M1697.7,1031.4h-26.2v18.3h26.2V1031.4z"/>
	<path class="st3" d="M1723.1,880.6h-357.5v20.7h357.5V880.6z"/>
	<path class="st4" d="M1444.8,880.6h-40.6l8.6-127.9h28.9l7.2,127.9H1444.8z"/>
	<path class="st4" d="M1512,880.6h-40.6l8.6-127.9h28.9l7.2,127.9H1512z"/>
	<path class="st2" d="M1411.6,769.5h31l1,17.3h-33.1L1411.6,769.5z"/>
	<path class="st2" d="M1408.5,816.7h36.8l1,17.6h-39L1408.5,816.7z"/>
	<path class="st2" d="M1405.3,866.7h43l0.8,13.9h-44.7L1405.3,866.7z"/>
	<path class="st2" d="M1478.9,769.5h30.9l1,17.3h-33.1L1478.9,769.5z"/>
	<path class="st2" d="M1475.7,816.7h36.8l1,17.6h-38.9L1475.7,816.7z"/>
	<path class="st2" d="M1472.6,866.7h43l0.8,13.9h-44.7L1472.6,866.7z"/>
</g>
</svg>
