<?xml version="1.0" encoding="utf-8"?>
<!-- Generator: Adobe Illustrator 25.0.0, SVG Export Plug-In . SVG Version: 6.00 Build 0)  -->
<svg version="1.1" id="cloudsToMove" xmlns="http://www.w3.org/2000/svg" xmlns:xlink="http://www.w3.org/1999/xlink" x="0px"
	 y="0px" viewBox="0 0 1440 1024" style="enable-background:new 0 0 1440 1024;" xml:space="preserve">
<style type="text/css">
	.st0{fill:none;stroke:#000000;stroke-miterlimit:10;}
	.st1{fill:#CED3D6;stroke:#000000;stroke-miterlimit:10;}
	.st2{fill:#D2D4D6;stroke:#000000;stroke-miterlimit:10;}
</style>
<path id="cloudToMove2" class="st0" d="M125,421h349.3c3.9,0,6.6-3.6,5.5-7.2c-3.7-11.5-12.7-32.8-29.8-33.8
	c-23.4-1.4-27.3,6.2-39,6.7c-11.7,0.5-49.8-26.7-71.3-26.3c-21.5,0.5-50.3,18.1-70.8,19.1c-20.5,1-51.3-22-75.7-22.4
	c-23.4-0.5-67.3,18.8-73.2,58.5C119.6,418.4,122,421,125,421z"/>
<path id="cloudToMove3" class="st0" d="M886.5,687.5c-1.4,3.1,1.1,6.5,4.5,6.5l286.8,0c3.8,0,5.7-3.7,3.1-5.9
	c-11.7-9.7-36.9-27.9-63.4-29.6c-36.2-2.3-50.9,11.2-68.3,10.9c-17.4-0.4-37.1-18.3-87.1-18.3C916.2,651,896.2,665.1,886.5,687.5z"
	/>
<path id="cloudToMove4" class="st1" d="M361.6,597c-1,3,1.4,6,4.6,6l112.1,0c1.5,0,2.3-2.3,1.2-3.7c-4.7-6.1-14.9-17.5-25.5-18.6
	c-14.6-1.4-20.5,7-27.5,6.8c-7-0.2-15-11.5-35.1-11.5C373.8,576,365.7,584,361.6,597z"/>
<path id="cloudToMove5" class="st2" d="M1081.4,351c1,3-1.4,6-4.6,6l-112.1,0c-1.5,0-2.3-2.3-1.2-3.7c4.7-6.1,14.9-17.5,25.5-18.6
	c14.6-1.4,20.5,7,27.5,6.8c7-0.2,15-11.5,35.1-11.5C1069.2,330,1077.3,338,1081.4,351z"/>
<path id="cloudToMove6" class="st0" d="M1440.1,453.8c1.1,3.1-1.3,6.2-4.6,6.2l-232,0c-3.1,0-4.7-3.7-2.5-5.9
	c9.5-9.7,30-27.9,51.5-29.6c29.4-2.3,41.3,11.2,55.5,10.9c14.2-0.4,30.2-18.3,70.7-18.3C1416,417,1432.2,431.2,1440.1,453.8z"/>
</svg>
