<svg id="LastCloud" xmlns="http://www.w3.org/2000/svg" viewBox="0 0 1486.92 296"><defs><style>.cls-1{fill:none;stroke:#000;stroke-miterlimit:10;}</style></defs><path id="LC1" class="cls-1" d="M515.07,254.38h359a5.81,5.81,0,0,0,5.65-7.5c-3.77-11.94-13-34-30.57-35.08-24.08-1.49-28.1,6.43-40.13,6.92S757.82,191,735.74,191.47,684.06,210.29,663,211.29,610.33,188.5,585.24,188c-24-.47-69.16,19.47-75.19,60.7A5,5,0,0,0,515.07,254.38Z" transform="translate(-366.5 -187.5)"/><path id="LC2" class="cls-1" d="M605.09,476.76a4.75,4.75,0,0,1-4.61,6.24l-230,0a3.5,3.5,0,0,1-2.48-5.93c9.39-9.66,29.75-27.93,51.08-29.57,29.17-2.26,41,11.21,55,10.85S504,440,544.23,440C581.18,440,597.27,454.18,605.09,476.76Z" transform="translate(-366.5 -187.5)"/><path id="LC3" class="cls-1" d="M1843.61,342.45H1186.8a10.64,10.64,0,0,1-10.31-13.75c6.88-21.84,23.87-62.22,55.94-64.19,44.06-2.72,51.4,11.78,73.43,12.68s93.62-50.74,134-49.83,94.54,34.43,133.11,36.24,96.37-41.68,142.29-42.59c43.94-.86,126.54,35.62,137.55,111.06A9.2,9.2,0,0,1,1843.61,342.45Z" transform="translate(-366.5 -187.5)"/></svg>