<?xml version="1.0" encoding="utf-8"?>
<!-- Generator: Adobe Illustrator 25.0.0, SVG Export Plug-In . SVG Version: 6.00 Build 0)  -->
<svg version="1.1" id="mainImage" xmlns="http://www.w3.org/2000/svg" xmlns:xlink="http://www.w3.org/1999/xlink" x="0px" y="0px"
	 viewBox="0 0 1794 2093" style="enable-background:new 0 0 1794 2093;" xml:space="preserve">
<style type="text/css">
	.st0{fill:none;stroke:#000000;stroke-miterlimit:10;}
	.st1{fill:#E0EAF3;}
	.st2{fill:#759B6D;}
	.st3{fill:#414F3E;}
	.st4{fill:#ACD1A3;}
	.st5{fill:#DBF2D6;}
	.st6{fill:#5F8E55;}
	.st7{fill:#AFB2B1;}
	.st8{fill:#EAE2CE;}
	.st9{fill:none;}
	.st10{fill:#C8A7BB;}
	.st11{fill:#CCE3C7;}
	.st12{fill:#759370;}
	.st13{fill:#EFA5A9;}
	.st14{fill:#AA859D;}
	.st15{fill:#EEB8B9;}
	.st16{fill:#F8F0DB;}
	.st17{fill:#C4C4C4;}
	.st18{fill:#E5E5E5;}
	.st19{fill:#879BAA;}
	.st20{fill:#B9D6CE;}
	.st21{fill:#AEC3D3;}
	.st22{fill:#231F20;}
	.st23{fill:#AFDCD1;}
	.st24{fill:#97B4CF;}
	.st25{fill:#7CB5A6;}
	.st26{fill:#F4E1B8;}
	.st27{fill:#FFBA7B;}
	.st28{fill:#B8E8DB;}
	.st29{fill:#6E8967;}
	.st30{fill:#9AB792;}
	.st31{fill:#DBD9D9;stroke:#000000;}
	.st32{fill:#DBD9D9;stroke:#000000;stroke-miterlimit:10;}
	.st33{fill:none;stroke:#000000;}
	.st34{fill:none;stroke:#231F20;stroke-miterlimit:10;}
	.st35{fill:#FFFFFF;stroke:#000000;}
	.st36{fill:#BCBB9C;}
	.st37{fill:#EACAB0;}
</style>
<g id="wavesImage">
	<path id="wave1" class="st0" d="M63.6,667.3c42.6,0,42.6,41.8,85.2,41.8s42.6-41.8,85.2-41.8s42.6,41.8,85.2,41.8
		s42.6-41.8,85.2-41.8s42.6,41.8,85.2,41.8s42.6-41.8,85.2-41.8c42.6,0,42.6,41.8,85.2,41.8c42.6,0,42.6-41.8,85.2-41.8
		c42.6,0,42.6,41.8,85.2,41.8c42.6,0,42.6-41.8,85.2-41.8s42.6,41.8,85.2,41.8"/>
	<path id="wave2" class="st0" d="M63.6,705.8c42.6,0,42.6,41.8,85.2,41.8s42.6-41.8,85.2-41.8s42.6,41.8,85.2,41.8
		s42.6-41.8,85.2-41.8s42.6,41.8,85.2,41.8s42.6-41.8,85.2-41.8c42.6,0,42.6,41.8,85.2,41.8c42.6,0,42.6-41.8,85.2-41.8
		c42.6,0,42.6,41.8,85.2,41.8c42.6,0,42.6-41.8,85.2-41.8s42.6,41.8,85.2,41.8"/>
	<path id="wave3" class="st0" d="M63.6,753.1c42.6,0,42.6,41.8,85.2,41.8s42.6-41.8,85.2-41.8s42.6,41.8,85.2,41.8
		s42.6-41.8,85.2-41.8s42.6,41.8,85.2,41.8s42.6-41.8,85.2-41.8c42.6,0,42.6,41.8,85.2,41.8c42.6,0,42.6-41.8,85.2-41.8
		c42.6,0,42.6,41.8,85.2,41.8c42.6,0,42.6-41.8,85.2-41.8s42.6,41.8,85.2,41.8"/>
</g>
<g id="colorImageFill">
	<path id="fishBackground_1_" class="st1" d="M442.3,957.5V910h664c-13.6,22.8-19,59.8-20,75.5v322.2H277.8v-210.2h21.5v-46h46.5
		V1005h49v-47.5H442.3z"/>
	<g id="seaweed_1_">
		<path class="st2" d="M565.6,1209.1c4.4-6.4,20.5-34.9,14.5-48c-0.4-0.7-1.5-0.9-2.2-0.3c-6.3,5-32.8,32.9-15.3,48.8
			C563.5,1210.4,564.9,1210.1,565.6,1209.1z"/>
		<path class="st3" d="M637.9,1201.7c4.4-6.4,20.5-34.9,14.5-47.9c-0.4-0.7-1.5-0.9-2.2-0.3c-6.3,5-32.8,33-15.3,48.8
			C635.8,1202.9,637.3,1202.7,637.9,1201.7z"/>
		<path class="st3" d="M620,1188.8c-8.3-5.4-41.1-31.2-40.5-49.5c0-1,1.2-1.8,2.4-1.4c9.8,2.9,54.6,23.1,41.8,50
			C623.1,1189.2,621.2,1189.6,620,1188.8z"/>
		<path class="st4" d="M368.3,1181.6c-10.7-7-53-40.3-52.1-63.8c0-1.3,1.6-2.3,3.1-1.8c12.6,3.7,70.4,29.8,53.8,64.5
			C372.3,1182.2,369.9,1182.7,368.3,1181.6z"/>
		<path class="st4" d="M391.4,1198.2c5.7-8.2,26.4-44.9,18.7-61.8c-0.4-1-1.9-1.2-2.8-0.4c-8.1,6.4-42.2,42.4-19.7,62.8
			C388.7,1199.8,390.6,1199.5,391.4,1198.2z"/>
		<path class="st5" d="M884.5,1215.1c-2.4-21.7,2.7-18.6,0.4-44.1c-1.2-13-7.2-27.5-8.4-43.1c-1.1-14.3,2.6-29.5,1.8-43.8
			c-0.8-15.7-6.1-30.6-6.1-43.5c-0.1-25,3.7-39.9,9.1-39c7.2,1.3,16.2,12.3,20.7,36c2.3,12.1-0.5,27.5,0.8,44.5
			c1,13.4,6.4,28,6.6,44c0.2,13.9-4.6,28.6-5,44.2c-0.4,14.1,3.6,29.9,2.7,45.2"/>
		<path class="st5" d="M863.8,1219.6c-4.2-14.7,1.4-12.8-3.2-30.2c-2.3-8.8-9.5-17.9-12.2-28.5c-2.4-9.8-0.3-21-2.4-30.8
			c-2.4-10.7-9.1-20.2-10.6-29.1c-2.9-17.2-1.2-27.3,2.7-27.3c5.3,0,13.6,5.5,19.5,21c3,8,1.6,19.3,4.4,30.8c2.2,9.1,9,18.2,11,29.1
			c1.7,9.5-1.3,20.3,0.1,31.1c1.3,9.7,7.7,19.1,8.7,29.7"/>
		<path class="st5" d="M922.3,1219.6c3.2-16.2,7.3-12.5,10.7-31.6c1.7-9.7-0.9-21.7,1-33.3c1.8-10.8,8.1-21.2,9.7-31.9
			c1.6-11.8-1.6-23.6-0.8-33.3c1.7-18.8,3.5-34-0.6-33.7c-5.6,0.5-8.7,13.2-13.6,30.6c-2.5,8.9-9.5,18.8-11.5,31.4
			c-1.6,9.9,1.6,21.5,0.4,33.5c-1,10.3-6.6,21-7.3,32.7c-0.6,10.6,3.6,21.8,3.4,33.3"/>
		<path class="st6" d="M663.3,1217.1c-1.9-17.8,3.1-14.6,1.3-35.5c-1-10.7-6.7-22.6-7.6-35.3c-0.9-11.8,3-24.3,2.4-36
			c-0.7-12.9-5.7-25.1-5.7-35.7c0-20.5,3.6-32.3,8-31.5c6,1,14,10,17.8,29.9c2,10.2-1.1,23.3,0,37.5c0.9,11.3,6.1,23.5,6.4,37
			c0.2,11.7-4.6,24.1-4.9,37.2c-0.3,11.9,3.8,24.5,3,37.4"/>
		<path class="st6" d="M695.8,1224.1c2.7-13.5,6.7-9.6,9.5-25.4c1.5-8.1-1.6-18.2,0-27.9c1.5-8.9,7.6-17.5,8.8-26.5
			c1.4-9.8-2.1-19.7-1.4-27.8c1.4-15.7,3.3-28.7-0.1-28.4c-4.6,0.4-6.8,11.5-10.9,26c-2.1,7.4-8.6,15.5-10.4,26
			c-1.3,8.3,2.1,18,1.1,28c-0.9,8.6-6.3,17.4-6.8,27.2c-0.5,8.8,3.8,18.2,3.6,27.8"/>
	</g>
	<path id="pipe_1_" class="st7" d="M1086.1,1192.9H955.2v31.3h130.9V1192.9z"/>
	<g id="doorStore_1_">
		<path id="door1_1_" class="st8" d="M1116.3,484l-115-105.5v375h115V484z"/>
		<path class="st9" d="M1025.2,608.8c4.8,0,8.6-3.8,8.6-8.5s-3.9-8.5-8.6-8.5c-4.7,0-8.6,3.8-8.6,8.5
			C1016.5,605,1020.4,608.8,1025.2,608.8z"/>
		<path class="st9" d="M1080.4,631.5H1022V719h58.4V631.5z"/>
		<path class="st9" d="M1085,626h-67.6v98.5h67.6V626z"/>
		<path class="st9" d="M1083.1,479.8h-58.4v87.4h58.4V479.8z"/>
		<path class="st9" d="M1087.7,474.1h-67.6v98.6h67.6V474.1z"/>
	</g>
	<path id="flowerPot_1_" class="st10" d="M1210.6,355.5h37.1l6.1,33.8c1.8,9.9-5.9,19-16.1,19h-17.8c-10.6,0-18.4-9.6-16.3-19.8
		L1210.6,355.5z"/>
	<g id="vNeckShirtHang_1_">
		<path class="st11" d="M1242.6,673l-22.2-27.7l-13.2,4.8c5.8,14.4,2.4,25.7,0,29.5v55.3h69v-55.3c-3.8-6.3-1.6-22.3,0-29.5l-9-3
			L1242.6,673z"/>
		<path class="st12" d="M1287,656.2l-10.8-6c-3.4,14.9-2.4,26.5,0.1,29.5L1287,656.2z"/>
		<path class="st12" d="M1196.4,656.2l10.9-6c5.9,13.2,2.3,26.5-0.1,29.5L1196.4,656.2z"/>
	</g>
	<path id="tShirtHang_1_" class="st13" d="M1351.7,658.5c-11,0.5-20.2-8.2-23.4-12.6l-34.8,12.6l2.4,20.4h18.6v48.7h70.2v-48.7
		l21.6-1.2v-19.2l-31.2-11.4C1371.9,650.6,1362.7,658,1351.7,658.5z"/>
	<path id="dressHang_1_" class="st14" d="M1431,645.5c0,0,1.9,32.5,24.3,32.5s22.8-32.5,22.8-32.5l6.1,2.7c0,0-1.9,24.1,2.7,29.8
		c0,0-8.8,20.6-7.2,30.2c1.5,9.6,17.5,71.4,18.7,102.3c0,0-47.6,26.4-85.6,0c0,0,9.9-73.7,17.9-103.1c0,0-2.3-23.3-5.3-26.7
		c-3.1-3.4,3.1-16,0.8-35.1h4.8L1431,645.5L1431,645.5z"/>
	<g id="building1pipes_1_">
		<path class="st15" d="M64.8,338V189.6h78.5L162.8,338H64.8z"/>
		<path class="st15" d="M207.3,337l14-68.5h68.5l13.5,69.5L207.3,337z"/>
	</g>
	<path id="building1_1_" class="st16" d="M64.8,595.5V338h407c24.3,0,44,19.7,44,44v213.5H64.8z"/>
	<path class="st17" d="M64.4,189.9h307.1c1.9,0,3.2-1.8,2.6-3.5c-4.5-13.8-26-63.4-103.2-62.6c-89.7,0.9-98,33.3-111.2,33.1
		c-13.1-0.2-18.8-9.3-38.1-11s-40,2.3-57.2,11"/>
	<path class="st18" d="M221,268.5h313.3c3.5,0,6-3.3,4.9-6.6c-3.3-10.4-11.4-29.7-26.7-30.6c-21-1.3-24.5,5.6-35,6
		s-44.7-24.2-63.9-23.8c-19.3,0.4-45.1,16.4-63.5,17.3c-18.4,0.9-46-19.9-67.9-20.3c-20.9-0.4-60.4,17-65.6,53
		C216.3,266.1,218.4,268.5,221,268.5z"/>
	<g id="building2_1_">
		<path class="st17" d="M1000.8,376.5l1,1V665H888.3V488L1000.8,376.5z"/>
		<path class="st19" d="M914.1,496.9v54.9h38.1v-59.6h-38.1V496.9z"/>
		<path class="st19" d="M914.1,572.8v68.4h38.1V567h-38.1V572.8z"/>
	</g>
	<path class="st18" d="M877.3,222.2h197.8c3.6,0,5.5-4.3,2.9-6.9c-11.1-11.2-35.3-32.3-60.6-34.2c-34.6-2.6-48.6,13-65.2,12.5
		c-16.6-0.4-35.5-21.2-83.2-21.2s-66.1,19.4-74.4,49.7"/>
	<path id="building2pipe_1_" class="st20" d="M776.3,665.5h112V488l7-7l-18-259h-83L776.3,665.5z"/>
	<rect id="retailTable_1_" x="1184.3" y="408" class="st21" width="321" height="138"/>
	<g id="fishMain1_1_">
		<path class="st15" d="M498.3,1058.8v-7.6c0-2.7,2.4-4.7,5.1-4.3l36.3,5.6"/>
		<path class="st15" d="M461.6,1085c0,0-8.9-10-19.7-12.3c-2.1-0.4-4.1,1.2-4.1,3.3c0,5,1.1,13.5,7.2,16.9c2,1.1,2.1,3.9,0.4,5.4
			c-3.5,3.1-7.2,8.3-6.5,15.6c0.1,1.5,1.2,2.7,2.6,3c3.9,0.8,12.3,0.5,21.6-13.9"/>
		<path class="st10" d="M498.3,1058.8c0,0,79.5-25.2,86,26.2c6.6,51.4-76.4,43.3-91.1,35.1c-14.7-8.3-46.9-21-31.7-35.1
			C476.7,1071,498.3,1058.8,498.3,1058.8z"/>
		<path class="st9" d="M537.4,1082.4c0,0-8.5,8.6,0,20.8"/>
		<path class="st22" d="M556.7,1092.5c2.3,0,4.2-1.9,4.2-4.2c0-2.3-1.9-4.2-4.2-4.2s-4.2,1.9-4.2,4.2
			C552.5,1090.7,554.4,1092.5,556.7,1092.5z"/>
	</g>
	<g id="fishMain2_1_">
		<path class="st11" d="M793.2,1115v-5.1c0-1.8-1.6-3.2-3.5-2.9l-24.5,3.8"/>
		<path class="st23" d="M818,1132.7c0,0,6-6.8,13.3-8.3c1.4-0.3,2.8,0.8,2.8,2.2c0,3.4-0.7,9.1-4.8,11.4c-1.3,0.8-1.4,2.6-0.3,3.7
			c2.4,2.1,4.8,5.6,4.4,10.5c-0.1,1-0.8,1.8-1.8,2c-2.6,0.6-8.3,0.3-14.5-9.4"/>
		<path class="st16" d="M793.2,1115c0,0-53.6-17-58.1,17.7c-4.4,34.7,51.5,29.2,61.4,23.7c9.9-5.6,31.6-14.2,21.4-23.7
			S793.2,1115,793.2,1115z"/>
		<path class="st9" d="M766.8,1130.9c0,0,5.8,5.8,0,14"/>
		<path class="st22" d="M753.8,1137.8c1.6,0,2.8-1.2,2.8-2.8c0-1.6-1.3-2.8-2.8-2.8s-2.8,1.3-2.8,2.8S752.2,1137.8,753.8,1137.8z"/>
	</g>
	<g id="fishMain3_1_">
		<path class="st10" d="M1031.2,983.3c0,0,4.3-4.8,9.4-5.9c1-0.2,2,0.6,2,1.6c0,2.4-0.5,6.4-3.4,8.1c-0.9,0.5-1,1.9-0.2,2.6
			c1.7,1.5,3.4,3.9,3.1,7.5c-0.1,0.7-0.6,1.3-1.3,1.4c-1.9,0.4-5.9,0.2-10.3-6.6"/>
		<path class="st10" d="M1013.6,970.8v-3.6c0-1.3-1.1-2.3-2.4-2.1l-17.3,2.7"/>
		<path class="st15" d="M1013.6,970.8c0,0-38-12.1-41.1,12.5s36.5,20.7,43.5,16.8s22.4-10.1,15.2-16.8S1013.6,970.8,1013.6,970.8z"
			/>
		<path class="st9" d="M994.9,982.1c0,0,4.1,4.1,0,9.9"/>
		<path class="st22" d="M985.7,987c1.1,0,2-0.9,2-2s-0.9-2-2-2s-2,0.9-2,2C983.6,986,984.5,987,985.7,987z"/>
	</g>
	<g id="laundryMachineWash_1_">
		<path class="st16" d="M1233.9,1220.6v-197.1H1450v196.7"/>
		<path class="st11" d="M1341.9,1200.4c33.4,0,60.4-26.7,60.4-59.6s-27-59.6-60.4-59.6c-33.3,0-60.4,26.7-60.4,59.6
			C1281.6,1173.8,1308.6,1200.4,1341.9,1200.4z"/>
		<path class="st24" d="M1341.9,1190.9c28,0,50.8-22.4,50.8-50.1s-22.7-50.1-50.8-50.1c-28,0-50.8,22.4-50.8,50.1
			C1291.2,1168.5,1313.9,1190.9,1341.9,1190.9z"/>
		<path class="st9" d="M1291.8,1144.2c9.9,0,9.9,9.3,19.8,9.3s9.9-9.3,19.9-9.3c9.9,0,9.9,9.3,19.8,9.3s9.9-9.3,19.9-9.3
			c9.9,0,9.9,9.3,19.9,9.3"/>
		<path class="st9" d="M1291.5,1130.5c10.1,0,10.1,9.3,20.2,9.3s10.1-9.3,20.2-9.3s10.1,9.3,20.2,9.3s10.1-9.3,20.2-9.3
			s10.1,9.3,20.2,9.3"/>
		<path class="st23" d="M1450,1068.1h-216.1v-44.5H1450V1068.1z"/>
		<path class="st11" d="M1341.9,1061.6c8.6,0,15.6-6.9,15.6-15.4s-7-15.4-15.6-15.4s-15.6,6.9-15.6,15.4
			S1333.3,1061.6,1341.9,1061.6z"/>
	</g>
	<path id="laundryBasket_1_" class="st25" d="M1220.5,1230.2h-23.2c-15.6,0-28.3-12.5-28.3-27.9v-67.2h79.7v67.3
		C1248.7,1217.8,1236.1,1230.2,1220.5,1230.2z"/>
	<g id="livingRoom_1_">
		<path class="st26" d="M277.8,1423.1v-325.5h-27.5v46.5h-47.5v48.5h-48v52h63v178.5H277.8z"/>
		<g id="Candle_1_">
			<path class="st9" d="M102.6,1107.5v12.6"/>
			<path class="st17" d="M119.2,1240.2H86.1v4.2h33.1V1240.2z"/>
			<path class="st17" d="M108.4,1188.7H96.3c-3.2,0-5.8-2.6-5.8-5.7v-4.6h24.3v4.1C114.8,1185.8,111.9,1188.7,108.4,1188.7z"/>
			<path class="st17" d="M102.4,1199.4c-3.2,0-5.8-2.6-5.8-5.7v-4.7h12.2v4.1C108.7,1196.6,105.9,1199.4,102.4,1199.4z"/>
			<path class="st17" d="M104.2,1199.4h-3.1v40.9h3.1V1199.4z"/>
			<path class="st15" d="M107.4,1178.2h-9.6v-56.1c0-1.3,1.1-2.3,2.3-2.3h5c1.3,0,2.3,1.1,2.3,2.3
				C107.4,1122.2,107.4,1178.2,107.4,1178.2z"/>
			<path class="st27" d="M102.2,1086.7c-0.9-0.5-2.1,0.2-2,1.2c0.1,2-0.1,5.2-2,8.8c-3.2,5.9-1.8,7.9,1.2,9.8s11.4-1.6,8.9-10.8
				C106.9,1090.2,104.2,1087.8,102.2,1086.7z"/>
		</g>
		<rect id="TableCandle_1_" x="64.3" y="1244.1" class="st28" width="154" height="179"/>
		<path class="st15" d="M177.8,1308h-65h-4.3v-22.7h69.3V1308z"/>
	</g>
	<g id="groundDirt_1_">
		<path id="e2_1_" class="st29" d="M1260.3,1428.7h-359c-4,0-6.8-3.8-5.6-7.5c3.8-11.9,13-34,30.6-35.1c24.1-1.5,28.1,6.4,40.1,6.9
			s51.2-27.7,73.3-27.2c22.1,0.5,51.7,18.8,72.7,19.8c21.1,1,52.7-22.8,77.8-23.3c24-0.5,69.2,19.5,75.2,60.7
			C1265.8,1426,1263.4,1428.7,1260.3,1428.7z"/>
		<g>
			<path id="e3_1_" class="st29" d="M1147.7,1712.4c-1.1,3.1,1.3,6.2,4.6,6.2h230c3.1,0,4.6-3.7,2.5-5.9
				c-9.4-9.7-29.8-27.9-51.1-29.6c-29.2-2.2-41,11.2-55,10.9c-14-0.4-29.9-18.3-70.2-18.3
				C1171.6,1675.6,1155.5,1689.8,1147.7,1712.4z"/>
			<path id="e1_1_" class="st30" d="M164.2,1573.4H821c7.2,0,12.5-6.9,10.3-13.8c-6.9-21.8-23.9-62.2-55.9-64.2
				c-44.1-2.7-51.4,11.8-73.4,12.7c-22,0.9-93.6-50.7-134-49.8c-40.4,0.9-94.5,34.4-133.1,36.2c-38.6,1.8-96.4-41.7-142.3-42.6
				c-43.9-0.9-126.5,35.6-137.6,111C154.1,1568.6,158.6,1573.4,164.2,1573.4z"/>
		</g>
	</g>
	<g id="computer">
		<path class="st31" d="M1372,409l7-32h25.5l7.5,32H1372z"/>
		<path class="st32" d="M1470.8,279.1h-161.2V378h161.2V279.1z"/>
	</g>
	<g id="window_1_">
		<path class="st17" d="M118.3,376.4h-14.4v40.2h14.4V376.4z"/>
		<path class="st17" d="M149.2,376.4h-14.4v40.2h14.4V376.4z"/>
		<path class="st17" d="M180.2,376.4h-14.4v40.2h14.4V376.4z"/>
		<path class="st17" d="M118.3,451.7h-14.4v40.2h14.4V451.7z"/>
		<path class="st17" d="M149.2,451.7h-14.4v40.2h14.4V451.7z"/>
		<path class="st17" d="M180.2,451.7h-14.4v40.2h14.4V451.7z"/>
		<path class="st17" d="M118.3,527h-14.4v40.2h14.4V527z"/>
		<path class="st17" d="M149.2,527h-14.4v40.2h14.4V527z"/>
		<path class="st17" d="M180.2,527h-14.4v40.2h14.4V527z"/>
		<path class="st17" d="M253.9,376.4h-14.5v40.2h14.4v-40.2H253.9z"/>
		<path class="st17" d="M284.9,376.4h-14.5v40.2h14.4v-40.2H284.9z"/>
		<path class="st17" d="M315.8,376.4h-14.4v40.2h14.5v-40.2H315.8z"/>
		<path class="st17" d="M253.9,451.7h-14.5v40.2h14.4v-40.2H253.9z"/>
		<path class="st17" d="M284.9,451.7h-14.5v40.2h14.4v-40.2H284.9z"/>
		<path class="st17" d="M315.8,451.7h-14.4v40.2h14.5v-40.2H315.8z"/>
		<path class="st17" d="M253.9,527h-14.5v40.2h14.4V527H253.9z"/>
		<path class="st17" d="M284.9,527h-14.5v40.2h14.4V527H284.9z"/>
		<path class="st17" d="M315.8,527h-14.4v40.2h14.5V527H315.8z"/>
		<path class="st17" d="M393.6,376.4h-14.4v40.2h14.4V376.4z"/>
		<path class="st17" d="M424.6,376.4h-14.5v40.2h14.5V376.4z"/>
		<path class="st17" d="M455.6,376.4h-14.4v40.2h14.4V376.4z"/>
		<path class="st17" d="M393.6,451.7h-14.4v40.2h14.4V451.7z"/>
		<path class="st17" d="M424.6,451.7h-14.5v40.2h14.5V451.7z"/>
		<path class="st17" d="M455.6,451.7h-14.4v40.2h14.4V451.7z"/>
		<path class="st17" d="M393.6,527h-14.4v40.2h14.4V527z"/>
		<path class="st17" d="M424.6,527h-14.5v40.2h14.5V527z"/>
		<path class="st17" d="M455.6,527h-14.4v40.2h14.4V527z"/>
	</g>
</g>
<g id="colorImageOutline">
	<path id="fishBackground" class="st0" d="M441.5,958v-47.5h664c-13.6,22.8-19,59.8-20,75.5v322.2H277V1098h21.5v-46H345v-46.5h49
		V958H441.5z"/>
	<g id="seaweed">
		<path class="st0" d="M564.8,1209.5c4.4-6.4,20.5-34.9,14.5-48c-0.4-0.7-1.5-0.9-2.2-0.3c-6.3,5-32.8,32.9-15.3,48.8
			C562.7,1210.8,564.1,1210.5,564.8,1209.5z"/>
		<path class="st0" d="M637.1,1202.1c4.4-6.4,20.5-34.9,14.5-47.9c-0.4-0.7-1.5-0.9-2.2-0.3c-6.3,5-32.8,33-15.3,48.8
			C635,1203.3,636.5,1203.1,637.1,1202.1z"/>
		<path class="st0" d="M619.2,1189.2c-8.3-5.4-41.1-31.2-40.5-49.5c0-1,1.2-1.8,2.4-1.4c9.8,2.9,54.6,23.1,41.8,50
			C622.3,1189.6,620.4,1190,619.2,1189.2z"/>
		<path class="st0" d="M367.5,1182c-10.7-7-53-40.3-52.1-63.8c0-1.3,1.6-2.3,3.1-1.8c12.6,3.7,70.4,29.8,53.8,64.5
			C371.5,1182.6,369.1,1183.1,367.5,1182z"/>
		<path class="st0" d="M390.6,1198.7c5.7-8.2,26.4-44.9,18.7-61.8c-0.4-1-1.9-1.2-2.8-0.4c-8.1,6.4-42.2,42.4-19.7,62.8
			C387.9,1200.2,389.8,1199.9,390.6,1198.7z"/>
		<path class="st0" d="M883.7,1215.5c-2.4-21.7,2.7-18.6,0.4-44.1c-1.2-13-7.2-27.5-8.4-43.1c-1.1-14.3,2.6-29.5,1.8-43.8
			c-0.8-15.7-6.1-30.6-6.1-43.5c-0.1-25,3.7-39.9,9.1-39c7.2,1.3,16.2,12.3,20.7,36c2.3,12.1-0.5,27.5,0.8,44.5
			c1,13.4,6.4,28,6.6,44c0.2,13.9-4.6,28.6-5,44.2c-0.4,14.1,3.6,29.9,2.7,45.2"/>
		<path class="st0" d="M863,1220c-4.2-14.7,1.4-12.8-3.2-30.2c-2.3-8.8-9.5-17.9-12.2-28.5c-2.4-9.8-0.3-21-2.4-30.8
			c-2.4-10.7-9.1-20.2-10.6-29.1c-2.9-17.2-1.2-27.3,2.7-27.3c5.3,0,13.6,5.5,19.5,21c3,8,1.6,19.3,4.4,30.8c2.2,9.1,9,18.2,11,29.1
			c1.7,9.5-1.3,20.3,0.1,31.1c1.3,9.7,7.7,19.1,8.7,29.7"/>
		<path class="st0" d="M921.5,1220c3.2-16.2,7.3-12.5,10.7-31.6c1.7-9.7-0.9-21.7,1-33.3c1.8-10.8,8.1-21.2,9.7-31.9
			c1.6-11.8-1.6-23.6-0.8-33.3c1.7-18.8,3.5-34-0.6-33.7c-5.6,0.5-8.7,13.2-13.6,30.6c-2.5,8.9-9.5,18.8-11.5,31.4
			c-1.6,9.9,1.6,21.5,0.4,33.5c-1,10.3-6.6,21-7.3,32.7c-0.6,10.6,3.6,21.8,3.4,33.3"/>
		<path class="st0" d="M662.5,1217.5c-1.9-17.8,3.1-14.6,1.3-35.5c-1-10.7-6.7-22.6-7.6-35.3c-0.9-11.8,3-24.3,2.4-36
			c-0.7-12.9-5.7-25.1-5.7-35.7c0-20.5,3.6-32.3,8-31.5c6,1,14,10,17.8,29.9c2,10.2-1.1,23.3,0,37.5c0.9,11.3,6.1,23.5,6.4,37
			c0.2,11.7-4.6,24.1-4.9,37.2c-0.3,11.9,3.8,24.5,3,37.4"/>
		<path class="st0" d="M695,1224.5c2.7-13.5,6.7-9.6,9.5-25.4c1.5-8.1-1.6-18.2,0-27.9c1.5-8.9,7.6-17.5,8.8-26.5
			c1.4-9.8-2.1-19.7-1.4-27.8c1.4-15.7,3.3-28.7-0.1-28.4c-4.6,0.4-6.8,11.5-10.9,26c-2.1,7.4-8.6,15.5-10.4,26
			c-1.3,8.3,2.1,18,1.1,28c-0.9,8.6-6.3,17.4-6.8,27.2c-0.5,8.8,3.8,18.2,3.6,27.8"/>
	</g>
	<path id="pipe" class="st0" d="M1085.3,1193.3H954.4v31.3h130.9V1193.3z"/>
	<g id="doorStore">
		<path id="door1" class="st0" d="M1115.5,484.5l-115-105.5v375h115V484.5z"/>
		<path class="st0" d="M1024.4,609.2c4.8,0,8.6-3.8,8.6-8.5s-3.9-8.5-8.6-8.5s-8.6,3.8-8.6,8.5
			C1015.7,605.4,1019.6,609.2,1024.4,609.2z"/>
		<path class="st0" d="M1079.6,632h-58.4v87.4h58.4V632z"/>
		<path class="st0" d="M1084.2,626.5h-67.6V725h67.6V626.5z"/>
		<path class="st0" d="M1082.3,480.2h-58.4v87.4h58.4V480.2z"/>
		<path class="st0" d="M1086.9,474.6h-67.6v98.6h67.6V474.6z"/>
	</g>
	<path id="flowerPot" class="st0" d="M1209.8,356h37.1l6.1,33.8c1.8,9.9-5.9,19-16.1,19h-17.8c-10.6,0-18.4-9.6-16.3-19.8
		L1209.8,356z"/>
	<g id="vNeckShirtHang">
		<path class="st0" d="M1241.8,673.5l-22.2-27.7l-13.2,4.8c5.8,14.4,2.4,25.7,0,29.5v55.3h69v-55.3c-3.8-6.3-1.6-22.3,0-29.5l-9-3
			L1241.8,673.5z"/>
		<path class="st0" d="M1286.2,656.7l-10.8-6c-3.4,14.9-2.4,26.5,0.1,29.5L1286.2,656.7z"/>
		<path class="st0" d="M1195.6,656.7l10.9-6c5.9,13.2,2.3,26.5-0.1,29.5L1195.6,656.7z"/>
	</g>
	<path id="tShirtHang" class="st0" d="M1350.9,658.9c-11,0.5-20.2-8.2-23.4-12.6l-34.8,12.6l2.4,20.4h18.6V728h70.2v-48.7l21.6-1.2
		v-19.2l-31.2-11.4C1371.1,651.1,1361.9,658.5,1350.9,658.9z"/>
	<path id="dressHang" class="st0" d="M1430.2,645.9c0,0,1.9,32.5,24.3,32.5s22.8-32.5,22.8-32.5l6.1,2.7c0,0-1.9,24.1,2.7,29.8
		c0,0-8.8,20.6-7.2,30.2c1.5,9.6,17.5,71.4,18.7,102.3c0,0-47.6,26.4-85.6,0c0,0,9.9-73.7,17.9-103.1c0,0-2.3-23.3-5.3-26.7
		c-3.1-3.4,3.1-16,0.8-35.1h4.8L1430.2,645.9L1430.2,645.9z"/>
	<g id="building1pipes">
		<path class="st0" d="M64,338.5V190h78.5L162,338.5H64z"/>
		<path class="st0" d="M206.5,337.5l14-68.5H289l13.5,69.5L206.5,337.5z"/>
	</g>
	<path id="building1" class="st0" d="M64,596V338.5h407c24.3,0,44,19.7,44,44V596H64z"/>
	<path class="st0" d="M63.6,190.3h307.1c1.9,0,3.2-1.8,2.6-3.5c-4.5-13.8-26-63.4-103.2-62.6c-89.7,0.9-98,33.3-111.2,33.1
		c-13.1-0.2-18.8-9.3-38.1-11s-40,2.3-57.2,11"/>
	<path class="st0" d="M220.2,269h313.3c3.5,0,6-3.3,4.9-6.6c-3.3-10.4-11.4-29.7-26.7-30.6c-21-1.3-24.5,5.6-35,6
		S432,213.6,412.8,214c-19.3,0.4-45.1,16.4-63.5,17.3c-18.4,0.9-46-19.9-67.9-20.3c-20.9-0.4-60.4,17-65.6,53
		C215.5,266.6,217.6,269,220.2,269z"/>
	<g id="building2">
		<path class="st0" d="M1000,377l1,1v287.5H887.5v-177L1000,377z"/>
		<path class="st0" d="M913.3,497.4v54.9h38.1v-59.6h-38.1V497.4z"/>
		<path class="st0" d="M913.3,573.3v68.4h38.1v-74.3h-38.1V573.3z"/>
	</g>
	<path class="st0" d="M876.5,222.7h197.8c3.6,0,5.5-4.3,2.9-6.9c-11.1-11.2-35.3-32.3-60.6-34.2c-34.6-2.6-48.6,13-65.2,12.5
		c-16.6-0.4-35.5-21.2-83.2-21.2s-66.1,19.4-74.4,49.7"/>
	<path id="building2pipe" class="st0" d="M775.5,666h112V488.5l7-7l-18-259h-83L775.5,666z"/>
	<rect id="retailTable" x="1183.5" y="408.5" class="st0" width="321" height="138"/>
	<g id="fishMain1">
		<path class="st0" d="M497.5,1059.2v-7.6c0-2.7,2.4-4.7,5.1-4.3l36.3,5.6"/>
		<path class="st0" d="M460.8,1085.4c0,0-8.9-10-19.7-12.3c-2.1-0.4-4.1,1.2-4.1,3.3c0,5,1.1,13.5,7.2,16.9c2,1.1,2.1,3.9,0.4,5.4
			c-3.5,3.1-7.2,8.3-6.5,15.6c0.1,1.5,1.2,2.7,2.6,3c3.9,0.8,12.3,0.5,21.6-13.9"/>
		<path class="st0" d="M497.5,1059.2c0,0,79.5-25.2,86,26.2c6.6,51.4-76.4,43.3-91.1,35.1c-14.7-8.3-46.9-21-31.7-35.1
			C475.9,1071.4,497.5,1059.2,497.5,1059.2z"/>
		<path class="st0" d="M536.6,1082.8c0,0-8.5,8.6,0,20.8"/>
		<path class="st0" d="M555.9,1092.9c2.3,0,4.2-1.9,4.2-4.2c0-2.3-1.9-4.2-4.2-4.2s-4.2,1.9-4.2,4.2
			C551.7,1091.1,553.6,1092.9,555.9,1092.9z"/>
	</g>
	<g id="fishMain2">
		<path class="st0" d="M792.4,1115.4v-5.1c0-1.8-1.6-3.2-3.5-2.9l-24.5,3.8"/>
		<path class="st0" d="M817.2,1133.1c0,0,6-6.8,13.3-8.3c1.4-0.3,2.8,0.8,2.8,2.2c0,3.4-0.7,9.1-4.8,11.4c-1.3,0.8-1.4,2.6-0.3,3.7
			c2.4,2.1,4.8,5.6,4.4,10.5c-0.1,1-0.8,1.8-1.8,2c-2.6,0.6-8.3,0.3-14.5-9.4"/>
		<path class="st0" d="M792.4,1115.4c0,0-53.6-17-58.1,17.7c-4.4,34.7,51.5,29.2,61.4,23.7c9.9-5.6,31.6-14.2,21.4-23.7
			S792.4,1115.4,792.4,1115.4z"/>
		<path class="st0" d="M766,1131.3c0,0,5.8,5.8,0,14"/>
		<path class="st0" d="M753,1138.2c1.6,0,2.8-1.2,2.8-2.8c0-1.6-1.3-2.8-2.8-2.8s-2.8,1.3-2.8,2.8
			C750.2,1136.9,751.4,1138.2,753,1138.2z"/>
	</g>
	<g id="fishMain3">
		<path class="st0" d="M1030.4,983.8c0,0,4.3-4.8,9.4-5.9c1-0.2,2,0.6,2,1.6c0,2.4-0.5,6.4-3.4,8.1c-0.9,0.5-1,1.9-0.2,2.6
			c1.7,1.5,3.4,3.9,3.1,7.5c-0.1,0.7-0.6,1.3-1.3,1.4c-1.9,0.4-5.9,0.2-10.3-6.6"/>
		<path class="st0" d="M1012.8,971.3v-3.6c0-1.3-1.1-2.3-2.4-2.1l-17.3,2.7"/>
		<path class="st0" d="M1012.8,971.3c0,0-38-12.1-41.1,12.5s36.5,20.7,43.5,16.8s22.4-10.1,15.2-16.8
			C1023.2,977.1,1012.8,971.3,1012.8,971.3z"/>
		<path class="st0" d="M994.1,982.6c0,0,4.1,4.1,0,9.9"/>
		<path class="st0" d="M984.9,987.4c1.1,0,2-0.9,2-2s-0.9-2-2-2s-2,0.9-2,2C982.8,986.5,983.7,987.4,984.9,987.4z"/>
	</g>
	<g id="laundryMachineWash">
		<path class="st0" d="M1233.1,1135.6v-111.7h216.1v196.7"/>
		<path class="st0" d="M1341.1,1200.8c33.4,0,60.4-26.7,60.4-59.6s-27-59.6-60.4-59.6c-33.3,0-60.4,26.7-60.4,59.6
			C1280.8,1174.2,1307.8,1200.8,1341.1,1200.8z"/>
		<path class="st0" d="M1341.1,1191.3c28,0,50.8-22.4,50.8-50.1s-22.7-50.1-50.8-50.1c-28,0-50.8,22.4-50.8,50.1
			C1290.4,1168.9,1313.1,1191.3,1341.1,1191.3z"/>
		<path class="st0" d="M1291,1144.6c9.9,0,9.9,9.3,19.8,9.3s9.9-9.3,19.9-9.3c9.9,0,9.9,9.3,19.8,9.3s9.9-9.3,19.9-9.3
			c9.9,0,9.9,9.3,19.9,9.3"/>
		<path class="st0" d="M1290.7,1130.9c10.1,0,10.1,9.3,20.2,9.3s10.1-9.3,20.2-9.3s10.1,9.3,20.2,9.3s10.1-9.3,20.2-9.3
			s10.1,9.3,20.2,9.3"/>
		<path class="st0" d="M1449.2,1068.5h-216.1V1024h216.1V1068.5z"/>
		<path class="st0" d="M1341.1,1062c8.6,0,15.6-6.9,15.6-15.4s-7-15.4-15.6-15.4s-15.6,6.9-15.6,15.4S1332.5,1062,1341.1,1062z"/>
	</g>
	<path id="laundryBasket" class="st0" d="M1219.7,1230.7h-23.2c-15.6,0-28.3-12.5-28.3-27.9v-67.2h79.7v67.3
		C1247.9,1218.2,1235.3,1230.7,1219.7,1230.7z"/>
	<g id="livingRoom">
		<path class="st0" d="M277,1423.5V1098h-27.5v46.5H202v48.5h-48v52h63v178.5H277z"/>
		<g id="Candle">
			<path class="st0" d="M101.8,1107.9v12.6"/>
			<path class="st0" d="M118.4,1240.6H85.3v4.2h33.1V1240.6z"/>
			<path class="st0" d="M107.6,1189.1H95.5c-3.2,0-5.8-2.6-5.8-5.7v-4.6H114v4.1C114,1186.2,111.1,1189.1,107.6,1189.1z"/>
			<path class="st0" d="M101.6,1199.8c-3.2,0-5.8-2.6-5.8-5.7v-4.7H108v4.1C107.9,1197,105.1,1199.8,101.6,1199.8z"/>
			<path class="st0" d="M103.4,1199.8h-3.1v40.9h3.1V1199.8z"/>
			<path class="st0" d="M106.6,1178.7H97v-56.1c0-1.3,1.1-2.3,2.3-2.3h5c1.3,0,2.3,1.1,2.3,2.3
				C106.6,1122.6,106.6,1178.7,106.6,1178.7z"/>
			<path class="st0" d="M101.4,1087.1c-0.9-0.5-2.1,0.2-2,1.2c0.1,2-0.1,5.2-2,8.8c-3.2,5.9-1.8,7.9,1.2,9.8s11.4-1.6,8.9-10.8
				C106.1,1090.7,103.4,1088.2,101.4,1087.1z"/>
		</g>
		<rect id="TableCandle" x="63.5" y="1244.5" class="st0" width="154" height="179"/>
		<path class="st0" d="M177,1308.4h-65h-4.3v-22.7H177V1308.4z"/>
	</g>
	<g id="groundDirt">
		<path id="e2" class="st0" d="M1259.5,1429.1h-359c-4,0-6.8-3.8-5.6-7.5c3.8-11.9,13-34,30.6-35.1c24.1-1.5,28.1,6.4,40.1,6.9
			s51.2-27.7,73.3-27.2c22.1,0.5,51.7,18.8,72.7,19.8c21.1,1,52.7-22.8,77.8-23.3c24-0.5,69.2,19.5,75.2,60.7
			C1265,1426.4,1262.6,1429.1,1259.5,1429.1z"/>
		<g>
			<path id="e3" class="st0" d="M1146.9,1712.8c-1.1,3.1,1.3,6.2,4.6,6.2h230c3.1,0,4.6-3.7,2.5-5.9c-9.4-9.7-29.8-27.9-51.1-29.6
				c-29.2-2.2-41,11.2-55,10.9c-14-0.4-29.9-18.3-70.2-18.3C1170.8,1676,1154.7,1690.2,1146.9,1712.8z"/>
			<path id="e1" class="st0" d="M163.4,1573.8h656.8c7.2,0,12.5-6.9,10.3-13.8c-6.9-21.8-23.9-62.2-55.9-64.2
				c-44.1-2.7-51.4,11.8-73.4,12.7c-22,0.9-93.6-50.7-134-49.8c-40.4,0.9-94.5,34.4-133.1,36.2c-38.6,1.8-96.4-41.7-142.3-42.6
				c-43.9-0.9-126.5,35.6-137.6,111C153.3,1569,157.8,1573.8,163.4,1573.8z"/>
		</g>
	</g>
	<g id="computer_1_">
		<path class="st33" d="M1373,408.7l7-32h25.5l7.5,32H1373z"/>
		<path class="st0" d="M1470.8,278.8h-161.2v98.9h161.2V278.8z"/>
	</g>
	<g id="window">
		<path class="st0" d="M117.9,376.4h-14.4v40.2h14.4V376.4z"/>
		<path class="st0" d="M148.8,376.4h-14.4v40.2h14.4V376.4z"/>
		<path class="st0" d="M179.8,376.4h-14.4v40.2h14.4V376.4z"/>
		<path class="st0" d="M117.9,451.7h-14.4v40.2h14.4V451.7z"/>
		<path class="st0" d="M148.8,451.7h-14.4v40.2h14.4V451.7z"/>
		<path class="st0" d="M179.8,451.7h-14.4v40.2h14.4V451.7z"/>
		<path class="st0" d="M117.9,527h-14.4v40.2h14.4V527z"/>
		<path class="st0" d="M148.8,527h-14.4v40.2h14.4V527z"/>
		<path class="st0" d="M179.8,527h-14.4v40.2h14.4V527z"/>
		<path class="st0" d="M253.5,376.4H239v40.2h14.4v-40.2H253.5z"/>
		<path class="st0" d="M284.5,376.4H270v40.2h14.4v-40.2H284.5z"/>
		<path class="st0" d="M315.4,376.4H301v40.2h14.5v-40.2H315.4z"/>
		<path class="st0" d="M253.5,451.7H239v40.2h14.4v-40.2H253.5z"/>
		<path class="st0" d="M284.5,451.7H270v40.2h14.4v-40.2H284.5z"/>
		<path class="st0" d="M315.4,451.7H301v40.2h14.5v-40.2H315.4z"/>
		<path class="st0" d="M253.5,527H239v40.2h14.4V527H253.5z"/>
		<path class="st0" d="M284.5,527H270v40.2h14.4V527H284.5z"/>
		<path class="st0" d="M315.4,527H301v40.2h14.5V527H315.4z"/>
		<path class="st0" d="M393.2,376.4h-14.4v40.2h14.4V376.4z"/>
		<path class="st0" d="M424.2,376.4h-14.5v40.2h14.5V376.4z"/>
		<path class="st0" d="M455.2,376.4h-14.4v40.2h14.4V376.4z"/>
		<path class="st0" d="M393.2,451.7h-14.4v40.2h14.4V451.7z"/>
		<path class="st0" d="M424.2,451.7h-14.5v40.2h14.5V451.7z"/>
		<path class="st0" d="M455.2,451.7h-14.4v40.2h14.4V451.7z"/>
		<path class="st0" d="M393.2,527h-14.4v40.2h14.4V527z"/>
		<path class="st0" d="M424.2,527h-14.5v40.2h14.5V527z"/>
		<path class="st0" d="M455.2,527h-14.4v40.2h14.4V527z"/>
	</g>
</g>
<path class="st0" d="M444.1,338.1h25.3c25,0,45.2,20,45.2,44.7v213.4"/>
<path class="st0" d="M63.6,596.2h502.3V631h35.3v35h35.2h364.3"/>
<path class="st0" d="M141.6,190.3l19.9,147.8"/>
<path class="st0" d="M148.4,240.5H63.6"/>
<path class="st0" d="M153.5,278.8H63.6"/>
<path class="st0" d="M220.2,269l-13.6,69.2"/>
<path class="st0" d="M289.3,269l12.8,69.2"/>
<path class="st0" d="M214.6,297.5h80"/>
<path class="st0" d="M887.6,666V488.5l112-110.5l115.9,106.7v269.7h-114.8"/>
<path class="st0" d="M894.2,482.1l-17.7-259.3h-82.7l-3.2,77.8L775.3,666"/>
<path class="st0" d="M787.6,370.1h98.9"/>
<path class="st0" d="M784.8,438.4H584.5l-40.1,39.5v118.2"/>
<path class="st0" d="M784.8,451.7H591.4l-34,33.5v110.9"/>
<path class="st0" d="M1115.5,547.1h70.9h317.3"/>
<path class="st0" d="M1503.8,408.8h-320v138.3"/>
<path class="st0" d="M63.6,338.1h937v572.3h-146"/>
<path class="st0" d="M1105.8,910.4H441.3V958H394v47.5h-49v46.7h-46.4v45.8h-49v46.7h-47.3v48.4H154v51.7"/>
<path class="st0" d="M62.7,936.9c20.2-14.9,77-12.6,77-12.6c75.7,0,137.1,60.6,137.1,135.4v363.9c-71.1,0-142.2,0-213.4,0"/>
<path class="st0" d="M62.7,1244.8h154.1v178.6"/>
<path class="st0" d="M1085.3,1308.4H277.2"/>
<path class="st0" d="M1470.8,1221.6h-230.5"/>
<path class="st0" d="M1175.3,1221.6h-59.8"/>
<g id="doorFrame">
	<path class="st0" d="M1115.5,1308.4V999c0-85.7,68.7-155.1,153.3-155.1h49.3c84.3,0,152.7,69.2,152.7,154.5v310"/>
	<path class="st0" d="M1503.8,1308.4h-418.5V994.5c0-101.8,83.6-184.4,186.8-184.4h42.3c104.7,0,189.5,83.8,189.5,187v311.3
		L1503.8,1308.4L1503.8,1308.4z"/>
	<path class="st0" d="M1099.8,1308.4V992.8c0-88,71.1-165.3,160.2-165.3h70.9c84.9,0,154.1,74,154.1,157.7v323.2"/>
</g>
<g id="flowersinPot">
	<path class="st34" d="M1250.7,336c0,0,5.6,8.4,3.1,13.3s-15.4,6.6-17.1-0.8c-0.1-0.3-0.1-0.7-0.1-1
		C1236.2,340.7,1248.2,337.1,1250.7,336z M1250.7,336c2.7-1.1,4.8-10.3,4.8-10.3s0.1,0,0.3-0.1c1.5-0.3,7.4-0.9,7.9,10.1
		c0.5,12.6-3.8,12.4-9,11.8"/>
	<path class="st34" d="M1250.2,336.2c0,0-6.3-6.7-12.2-6.7c-1.2,0-2.3,0.3-3.3,0.9c-6.5,3.8-4,14.2,1.9,19.1"/>
	<path class="st34" d="M1238,329.5c0,0,1.9-8.7,9.3-8.7c7.5,0,8.2,4.9,8.2,4.9"/>
	<path class="st34" d="M1214.2,311.4c0,0,9.9,2.3,11.5,7.6c1.6,5.3-6.6,15.3-13,11.1c-0.3-0.2-0.6-0.4-0.8-0.7
		C1206.9,324.7,1213,313.9,1214.2,311.4z M1214.2,311.4c1.2-2.6-3.7-10.7-3.7-10.7s0.1-0.1,0.2-0.3c0.8-1.2,4.8-5.7,12.8,2
		c9.2,8.8,5.8,11.5,1.7,14.7"/>
	<path class="st34" d="M1213.9,311.9c0,0-9.3-0.6-13.5,3.4c-0.8,0.8-1.4,1.7-1.8,2.9c-2,7.1,7,13,14.7,12.6"/>
	<path class="st34" d="M1200.3,315.3c0,0-4.7-7.6,0.7-12.7c5.4-5.1,9.4-2,9.4-2"/>
	<path class="st34" d="M1220.5,329.5c0,0,6.1,8.6,5.6,26.5"/>
	<path class="st34" d="M1236.7,348.5c0,0-5.5,4.9-5.1,7.4"/>
</g>
<g id="clothingRack">
	<path class="st0" d="M1484.1,650.1l12.1,6.3c2.1,1.1,1.5,4.2-0.8,4.5l-11.3,1.4"/>
	<path class="st0" d="M1166.8,842V601.8H1505"/>
	<path class="st0" d="M1181.2,833.5V615H1505"/>
	<path class="st0" d="M1472.2,599.4l-5.3-1.2c-6.7,0-12.2,5.2-12.2,11.6v27.3l-24.4,9.5"/>
	<path class="st0" d="M1477.2,648.3l-22.5-11.2"/>
	<path class="st0" d="M1369.4,599.6l-5.3-1.2c-6.7,0-12.2,5.2-12.2,11.6v27.3l-24.4,9.5"/>
	<path class="st0" d="M1424.4,649.3l-13,6.8c-1.8,1-1.3,3.7,0.7,4l12.2,1.5"/>
	<path class="st0" d="M1433.7,661.6h40.7"/>
	<path class="st0" d="M1352,637.3l22.5,11.2"/>
	<path class="st0" d="M1262,599.4l-5.3-1.2c-6.7,0-12.2,5.2-12.2,11.6v27.3l-24.4,9.5"/>
	<path class="st0" d="M1244.5,637.1l22.5,11.2"/>
	<path class="st0" d="M1229.8,658.6h26.5"/>
</g>
<path class="st33" d="M1383.9,651.1c-2.7,7.5-6.5,23.8,0,28.9"/>
<path class="st33" d="M1313.1,651.7c2,7,4.9,22.4,0.6,27.7"/>
<g id="flowersOnDress">
	<path class="st34" d="M1480.8,794.2c0,0,2.7,4.2,1.5,6.6c-1.2,2.5-7.3,3.3-8.2-0.4c0-0.2-0.1-0.3-0.1-0.5
		C1473.8,796.6,1479.5,794.8,1480.8,794.2z M1480.8,794.2c1.3-0.6,2.3-5.1,2.3-5.1s0.1,0,0.2,0c0.7-0.2,3.6-0.5,3.8,5
		c0.2,6.3-1.8,6.2-4.3,5.9"/>
	<path class="st34" d="M1438.8,685.2c0,0,2.7,4.2,1.5,6.6c-1.2,2.5-7.3,3.3-8.2-0.4c0-0.2-0.1-0.3-0.1-0.5
		C1431.8,687.6,1437.5,685.8,1438.8,685.2z M1438.8,685.2c1.3-0.6,2.3-5.1,2.3-5.1s0.1,0,0.2,0c0.7-0.2,3.6-0.5,3.8,5
		c0.2,6.3-1.8,6.2-4.3,5.9"/>
	<path class="st34" d="M1480,794.4c0,0-2.9-3.4-5.7-3.4c-0.5,0-1,0.1-1.5,0.4c-3,1.9-1.2,7.1,1.5,9.6"/>
	<path class="st34" d="M1438,685.4c0,0-2.9-3.4-5.7-3.4c-0.5,0-1,0.1-1.5,0.4c-3,1.9-1.8,7.1,0.9,9.6"/>
	<path class="st34" d="M1474,791c0,0,1-4,4.8-4s4.2,2.3,4.2,2.3"/>
	<path class="st34" d="M1432,682c0,0,1-4,4.8-4s4.2,2.3,4.2,2.3"/>
	<path class="st34" d="M1436.8,755.9c0,0,6.6,1.5,7.7,5s-4.4,10.2-8.7,7.4c-0.2-0.1-0.4-0.3-0.6-0.4
		C1432,764.8,1436.1,757.6,1436.8,755.9z M1436.8,755.9c0.8-1.8-2.4-7.1-2.4-7.1s0-0.1,0.1-0.2c0.6-0.8,3.2-3.8,8.5,1.3
		c6.2,5.9,3.9,7.7,1.1,9.8"/>
	<path class="st34" d="M1470.3,713.5c0,0,3.1,0.8,3.6,2.5c0.5,1.8-2,5.1-4,3.7c-0.1-0.1-0.2-0.1-0.3-0.2
		C1468.1,717.9,1470,714.3,1470.3,713.5z M1470.3,713.5c0.4-0.9-1.1-3.6-1.1-3.6s0,0,0.1-0.1c0.3-0.4,1.5-1.9,3.9,0.7
		c2.8,2.9,1.8,3.8,0.5,4.9"/>
	<path class="st34" d="M1436.5,757c0,0-6.1-0.4-9.1,2.2c-0.6,0.5-1,1.1-1.3,1.8c-1.4,4.5,4.9,8.3,10.3,8"/>
	<path class="st34" d="M1470,714c0,0-3-0.2-4.3,1.1c-0.3,0.2-0.5,0.6-0.6,0.9c-0.7,2.3,2.2,4.1,4.7,4"/>
	<path class="st34" d="M1428,758.5c0,0-3.4-5.4,0.2-8.6c3.6-3.3,6.3-1.3,6.3-1.3"/>
	<path class="st34" d="M1465.6,715c0,0-1.6-2.4,0.2-4.1c1.8-1.6,3.1-0.6,3.1-0.6"/>
</g>
<path class="st35" d="M64,279v-38.5h85l5,38.5H64z"/>
<path class="st35" d="M211,315l5-24.5h77.3l4.5,24.5H211z"/>
<path class="st0" d="M63.6,190.3h307.1c1.9,0,3.2-1.8,2.6-3.5c-4.5-13.8-26-63.4-103.2-62.6c-89.7,0.9-98,33.3-111.2,33.1
	c-13.1-0.2-18.8-9.3-38.1-11s-40,2.3-57.2,11L63.6,190.3L63.6,190.3z"/>
<path class="st0" d="M876.5,222.7h197.8c3.6,0,5.5-4.3,2.9-6.9c-11.1-11.2-35.3-32.3-60.6-34.2c-34.6-2.6-48.6,13-65.2,12.5
	c-16.6-0.4-35.5-21.2-83.2-21.2s-66.1,19.4-74.4,49.7"/>
<path class="st35" d="M884.5,338h-96l-1.5,40h100.5L884.5,338z"/>
<path class="st0" d="M703.3,1130.7c0,0-8.6,42.4-12.3,93.5"/>
<path class="st0" d="M664.9,1063c0,0,10.8,123.3,8.1,156.5"/>
<path class="st0" d="M841,1085.4c0,0,22.1,55.5,30.9,132"/>
<path id="sand" class="st0" d="M954.4,1224.6c-30.8,0.1-30.8-9.2-61.6-9.1s-30.7,9.4-61.5,9.5s-30.8-9.2-61.6-9.1
	s-30.7,9.4-61.5,9.5s-30.8-9.2-61.6-9.1s-30.8,9.4-61.5,9.5c-30.8,0.1-30.8-9.2-61.6-9.1s-30.8,9.4-61.5,9.5
	c-30.8,0.1-30.8-9.2-61.6-9.1s-30.8,9.4-61.5,9.5c-30.8,0.1-30.8-9.2-61.6-9.1"/>
<g id="seaweedStems">
	<path class="st0" d="M571.6,1177.2c-1,1.8-11.5,22.6-11,47.3"/>
	<path class="st0" d="M643.9,1169.7c-1,1.8-11.5,22.7-11,47.3"/>
	<path class="st0" d="M588.8,1148.1c0,0,36.5,15.9,36.4,70.7"/>
	<path class="st0" d="M399.4,1157c-1.3,2.3-14.8,29.2-14.1,60.9"/>
	<path class="st0" d="M328.4,1129.1c0,0,47.1,20.4,46.9,91.1"/>
	<path class="st0" d="M885,1026c0,0,12.9,149.1,9.6,189"/>
	<path class="st0" d="M931.2,1108.4c0,0-10.4,48.7-14.7,110.1"/>
</g>
<g id="flowersOnLaundryBasket">
	<path class="st34" d="M1210.4,1174.6c0,0-2.2,7.1-6.2,8s-11.1-5.5-7.7-10c0.2-0.2,0.4-0.4,0.5-0.6
		C1200.8,1168.7,1208.6,1173.7,1210.4,1174.6z M1210.4,1174.6c1.9,1,8.2-2.2,8.2-2.2s0.1,0.1,0.2,0.1c0.9,0.7,4,3.7-2.1,9.2
		c-7,6.2-8.9,3.7-11,0.5"/>
	<path class="st34" d="M1210,1174.4c0,0,0.9-6.7-1.9-10c-0.5-0.6-1.2-1.1-2.1-1.4c-5.2-1.8-10.1,4.5-10.1,10.1"/>
	<path class="st34" d="M1208.1,1164.4c0,0,5.9-3.1,9.4,1.1s1.1,6.9,1.1,6.9"/>
	<path class="st34" d="M1182.3,1192.7c0,0,3.1,4.6,1.7,7.4s-8.5,3.7-9.5-0.4c-0.1-0.2-0.1-0.4-0.1-0.6
		C1174.3,1195.3,1180.9,1193.3,1182.3,1192.7z M1182.3,1192.7c1.5-0.6,2.7-5.7,2.7-5.7s0.1,0,0.2-0.1c0.8-0.2,4.1-0.5,4.3,5.6
		c0.3,7-2.1,6.8-5,6.5"/>
	<path class="st34" d="M1182,1192.8c0,0-3.5-3.7-6.8-3.7c-0.6,0-1.2,0.1-1.8,0.5c-3.6,2.1-2.2,7.9,1,10.6"/>
	<path class="st34" d="M1175.3,1189.1c0,0,1-4.8,5.2-4.8c4.1,0,4.6,2.8,4.6,2.8"/>
	<path class="st34" d="M1233.3,1189.7c0,0-3.1,4.6-1.7,7.4c1.4,2.7,8.5,3.7,9.5-0.4c0.1-0.2,0.1-0.4,0.1-0.6
		C1241.3,1192.3,1234.7,1190.3,1233.3,1189.7z M1233.3,1189.7c-1.5-0.6-2.7-5.7-2.7-5.7s-0.1,0-0.2,0c-0.8-0.2-4.1-0.5-4.4,5.6
		c-0.3,7,2.1,6.8,5,6.5"/>
	<path class="st34" d="M1233.6,1189.8c0,0,3.5-3.7,6.8-3.7c0.6,0,1.2,0.1,1.8,0.5c3.6,2.1,2.2,7.9-1,10.6"/>
	<path class="st34" d="M1240.3,1186.1c0,0-1-4.8-5.2-4.8c-4.1,0-4.6,2.7-4.6,2.7"/>
	<path class="st34" d="M1207.2,1184.2v31.9"/>
	<path class="st34" d="M1184.1,1200.1l6.6,16.1"/>
	<path class="st34" d="M1231.6,1197.1l-5.5,19.1"/>
	<path class="st34" d="M1168.2,1141.2h79.7"/>
</g>
<g id="stoolLegs">
	<path class="st0" d="M112,1308.4v115.1"/>
	<path class="st0" d="M172.1,1308.4v115.1"/>
	<path class="st0" d="M112,1381.3h60.1"/>
</g>
<g id="starGroup">
	<polygon id="star_9_" class="st36" points="88.4,1017.9 86.4,1016.6 84.2,1017.5 84.9,1015.2 83.3,1013.3 85.7,1013.2 87,1011.2 
		87.8,1013.4 90.1,1014 88.3,1015.5 	"/>
	<polygon id="star_8_" class="st36" points="205.9,1030.4 203.3,1030.3 201.7,1032.3 201,1029.8 198.6,1028.9 200.8,1027.5 
		200.8,1024.9 202.9,1026.5 205.4,1025.8 204.4,1028.2 	"/>
	<polygon id="star_7_" class="st36" points="159.1,1069.9 156.5,1069.8 154.9,1071.9 154.2,1069.3 151.7,1068.5 153.9,1067 
		154,1064.4 156,1066.1 158.5,1065.3 157.6,1067.8 	"/>
	<polygon id="star_6_" class="st36" points="84.9,971.3 82.3,971.1 80.7,973.2 80,970.7 77.6,969.8 79.8,968.4 79.8,965.8 
		81.9,967.4 84.4,966.7 83.4,969.1 	"/>
	<polygon id="star_5_" class="st36" points="199.6,967.6 197,967.4 195.4,969.5 194.7,967 192.3,966.1 194.5,964.7 194.5,962 
		196.6,963.7 199.1,963 198.1,965.4 	"/>
	<polygon id="star_4_" class="st36" points="71.6,1066.2 69,1066.1 67.4,1068.1 66.8,1065.6 64.3,1064.7 66.5,1063.3 66.6,1060.7 
		68.6,1062.3 71.1,1061.6 70.2,1064.1 	"/>
	<polygon id="star_3_" class="st36" points="212.3,1104 209,1103.8 206.9,1106.5 206.1,1103.3 202.9,1102.1 205.7,1100.3 
		205.8,1096.9 208.4,1099.1 211.7,1098.1 210.5,1101.3 	"/>
	<polygon id="star_2_" class="st36" points="248.6,1034 246.8,1031.1 243.4,1031.1 245.6,1028.4 244.6,1025.2 247.7,1026.4 
		250.5,1024.5 250.3,1027.9 253,1029.9 249.8,1030.8 	"/>
	<polygon id="star_1_" class="st36" points="117.2,989.8 115.3,987 112,986.9 114.1,984.3 113.1,981.1 116.3,982.3 119,980.4 
		118.8,983.7 121.5,985.8 118.3,986.6 	"/>
	<polygon id="star" class="st36" points="117.2,1052.3 115.3,1049.5 112,1049.4 114.1,1046.8 113.1,1043.6 116.3,1044.8 119,1042.8 
		118.8,1046.2 121.5,1048.2 118.3,1049.1 	"/>
</g>
<g id="circleGroup">
	<circle id="circle_8_" class="st37" cx="1236" cy="875.7" r="7.1"/>
	<circle id="circle_7_" class="st37" cx="1399.8" cy="982.1" r="7.1"/>
	<circle id="circle_6_" class="st37" cx="1154.5" cy="1016.4" r="7.1"/>
	<circle id="circle_5_" class="st37" cx="1236" cy="953.6" r="7.1"/>
	<circle id="circle_4_" class="st37" cx="1277.2" cy="925.4" r="2.8"/>
	<circle id="circle_3_" class="st37" cx="1345.9" cy="884.1" r="2.8"/>
	<circle id="circle_2_" class="st37" cx="1325.5" cy="981.6" r="2.8"/>
	<circle id="circle_1_" class="st37" cx="1203.5" cy="1052.6" r="2.8"/>
	<circle id="circle" class="st37" cx="1181.2" cy="956.4" r="2.8"/>
</g>
</svg>
