<?xml version="1.0" encoding="utf-8"?>
<!-- Generator: Adobe Illustrator 25.0.0, SVG Export Plug-In . SVG Version: 6.00 Build 0)  -->
<svg version="1.1" id="rackSolution" xmlns="http://www.w3.org/2000/svg" xmlns:xlink="http://www.w3.org/1999/xlink" x="0px"
	 y="0px" viewBox="0 0 360.8 253.6" style="enable-background:new 0 0 360.8 253.6;" xml:space="preserve">
<style type="text/css">
	.st0{fill:none;stroke:#000000;stroke-miterlimit:10;}
	.st1{fill:#C8A7BB;}
	.st2{fill:#CCE3C7;}
	.st3{fill:#759370;}
	.st4{fill:#EEB8B9;}
	.st5{fill:none;}
	.st6{fill:none;stroke:#231F20;stroke-miterlimit:10;}
	.st7{fill:none;stroke:#000000;}
</style>
<g id="clothingRacks">
	<path class="st0" d="M15.5,253.1h-15V4.1h359.8v248.2h-13.8"/>
	<path class="st0" d="M14.9,253.1V17.3h332.2v234.5"/>
</g>
<g id="clothingSolutionFill">
	<path id="dressSolution_1_" class="st1" d="M264,49.2c0,0,1.9,32.5,24.3,32.5s22.8-32.5,22.8-32.5l6.1,2.7c0,0-1.9,24.1,2.7,29.8
		c0,0-8.8,20.6-7.2,30.2s17.5,71.4,18.7,102.3c0,0-47.6,26.3-85.6,0c0,0,9.9-73.7,17.9-103.1c0,0-2.3-23.3-5.3-26.7s3-16,0.8-35.1
		H264z"/>
	<g id="vNeckShirtSolution_1_">
		<path class="st2" d="M75.6,76.8L53.4,49.2L40.2,54c5.8,14.4,2.4,25.7,0,29.5v55.3h69V83.5c-3.8-6.2-1.6-22.2,0-29.5l-9-3
			L75.6,76.8z"/>
		<path class="st3" d="M120,60l-10.8-6c-3.4,14.9-2.4,26.5,0.1,29.5L120,60z"/>
		<path class="st3" d="M29.4,60l10.8-6c6,13.2,2.3,26.5,0,29.5L29.4,60z"/>
	</g>
	<g id="tShirtSolution_1_">
		<path class="st4" d="M184.8,62.3c-11,0.5-20.2-8.2-23.4-12.6l-34.8,12.6l2.4,20.4h18.6v48.7h70.2V82.7l21.6-1.2V62.3l-31.2-11.4
			C204.9,54.5,195.8,61.8,184.8,62.3z"/>
		<path class="st5" d="M217.7,54.5c-2.7,7.5-6.5,23.8,0,28.9"/>
		<path class="st5" d="M147,55.1c2,7,4.9,22.4,0.6,27.7"/>
	</g>
</g>
<g id="clothingSolutionOutline">
	<path id="dressSolution" class="st6" d="M264,49.5c0,0,1.9,32.5,24.3,32.5s22.8-32.5,22.8-32.5l6.1,2.7c0,0-1.9,24.1,2.7,29.8
		c0,0-8.8,20.6-7.2,30.2s17.5,71.4,18.7,102.3c0,0-47.6,26.3-85.6,0c0,0,9.9-73.7,17.9-103.1c0,0-2.3-23.3-5.3-26.7s3-16,0.8-35.1
		H264z"/>
	<g id="vNeckShirtSolution">
		<path class="st7" d="M75.6,77.1L53.4,49.4l-13.2,4.8c5.8,14.4,2.4,25.7,0,29.5V139h69V83.7c-3.8-6.2-1.6-22.2,0-29.5l-9-3
			L75.6,77.1z"/>
		<path class="st7" d="M120,60.2l-10.8-6c-3.4,14.9-2.4,26.5,0.1,29.5L120,60.2z"/>
		<path class="st7" d="M29.4,60.2l10.8-6c6,13.2,2.3,26.5,0,29.5L29.4,60.2z"/>
	</g>
	<g id="tShirtSolution">
		<path class="st7" d="M184.8,62.6c-11,0.5-20.2-8.2-23.4-12.6l-34.8,12.6L129,83h18.6v48.7h70.2V83l21.6-1.2V62.6l-31.2-11.4
			C204.9,54.7,195.8,62,184.8,62.6z"/>
		<path class="st7" d="M217.7,54.7c-2.7,7.5-6.5,23.8,0,28.9"/>
		<path class="st7" d="M147,55.3c2,7,4.9,22.4,0.6,27.7"/>
	</g>
</g>
<g id="hangers">
	<path class="st0" d="M317.8,52.4l12.1,6.3c1.2,0.6,1.6,2.1,1,3.3c-0.4,0.7-1,1.2-1.8,1.3l-11.3,1.4"/>
	<path class="st0" d="M305.9,1.7l-5.3-1.2c-6.7,0-12.2,5.2-12.2,11.6v27.3L264,48.9"/>
	<path class="st0" d="M311,50.6l-22.5-11.2"/>
	<path class="st0" d="M203.2,1.9l-5.3-1.2c-6.7,0-12.2,5.2-12.2,11.6v27.3L161.3,49"/>
	<path class="st0" d="M258.1,51.6l-13,6.8c-1,0.5-1.5,1.8-0.9,2.8c0.3,0.6,1,1.1,1.7,1.2l12.2,1.5"/>
	<path class="st0" d="M267.4,63.9h40.7"/>
	<path class="st0" d="M185.7,39.6l22.5,11.2"/>
	<path class="st0" d="M95.7,1.7l-5.3-1.2c-6.7,0-12.2,5.2-12.2,11.6v27.3l-24.4,9.5"/>
	<path class="st0" d="M78.2,39.4l22.5,11.2"/>
	<path class="st0" d="M63.6,60.9h26.5"/>
</g>
<g id="flowersOnDress">
	<path class="st6" d="M314.5,196.5c0,0,2.7,4.2,1.5,6.6c-1.2,2.5-7.3,3.3-8.2-0.4c0-0.2-0.1-0.3-0.1-0.5
		C307.5,198.9,313.3,197.1,314.5,196.5z M314.5,196.5c1.3-0.6,2.3-5.1,2.3-5.1h0.2c0.7-0.2,3.6-0.5,3.8,5c0.2,6.3-1.8,6.2-4.3,5.9"
		/>
	<path class="st6" d="M272.5,87.5c0,0,2.7,4.2,1.5,6.7s-7.3,3.3-8.2-0.4c0-0.2-0.1-0.3-0.1-0.5C265.5,89.9,271.3,88.1,272.5,87.5z
		 M272.5,87.5c1.3-0.6,2.3-5.1,2.3-5.1h0.2c0.7-0.2,3.6-0.5,3.8,5c0.2,6.3-1.8,6.2-4.3,5.9"/>
	<path class="st6" d="M313.7,196.7c0,0-3-3.4-5.7-3.4c-0.5,0-1.1,0.1-1.5,0.4c-3,1.9-1.2,7.1,1.5,9.6"/>
	<path class="st6" d="M271.7,87.7c0,0-3-3.4-5.7-3.4c-0.5,0-1.1,0.1-1.5,0.4c-3,1.9-1.8,7.1,0.9,9.6"/>
	<path class="st6" d="M307.7,193.3c0,0,1-4,4.8-4s4.2,2.3,4.2,2.3"/>
	<path class="st6" d="M265.7,84.3c0,0,1-4,4.8-4s4.2,2.3,4.2,2.3"/>
	<path class="st6" d="M270.5,158.2c0,0,6.6,1.5,7.7,5s-4.4,10.2-8.7,7.4c-0.2-0.1-0.4-0.3-0.6-0.4
		C265.7,167.1,269.8,159.9,270.5,158.2z M270.5,158.2c0.8-1.8-2.4-7.1-2.4-7.1l0.1-0.2c0.6-0.8,3.2-3.8,8.6,1.3
		c6.2,5.9,3.9,7.7,1.1,9.8"/>
	<path class="st6" d="M304,115.8c0,0,3.1,0.8,3.6,2.5s-2,5.1-4,3.7l-0.3-0.2C301.8,120.2,303.7,116.6,304,115.8z M304,115.8
		c0.4-0.9-1.1-3.6-1.1-3.6l0.1-0.1c0.3-0.4,1.5-1.9,4,0.7c2.8,2.9,1.8,3.8,0.5,4.9"/>
	<path class="st6" d="M270.3,159.3c0,0-6.1-0.4-9.1,2.2c-0.6,0.5-1,1.1-1.3,1.8c-1.4,4.5,4.9,8.3,10.3,8"/>
	<path class="st6" d="M303.7,116.3c0,0-3-0.2-4.3,1.1c-0.3,0.2-0.5,0.6-0.6,0.9c-0.7,2.3,2.2,4.1,4.7,4"/>
	<path class="st6" d="M261.7,160.8c0,0-3.4-5.4,0.2-8.6s6.3-1.3,6.3-1.3"/>
	<path class="st6" d="M299.3,117.3c0,0-1.6-2.4,0.2-4.1s3.1-0.7,3.1-0.7"/>
</g>
</svg>
