<svg id="TShirt" xmlns="http://www.w3.org/2000/svg" viewBox="0 0 359.52 295.56"><defs><style>.cls-1{fill:#afdcd1;}.cls-2{fill:#f8f0db;}.cls-3,.cls-4,.cls-5{fill:none;stroke:#000;}.cls-4{stroke-dasharray:5 5;}.cls-5{stroke-dasharray:5 5;}</style></defs><g id="tShirtFill"><path id="Body" class="cls-1" d="M323.74,295.36c-40.21-2.63-66.77-30.67-75-44.36L207.2,265.79l-69.2,37,19.67,78,49.53-12.32V541H429.36V368.48l49.53,12.32,17.48-78-67-37-32.05-9.86C389.54,270.17,364,298,323.74,295.36Z" transform="translate(-137.42 -245.94)"/><path id="Neck" class="cls-2" d="M323,295.83c-36-2.79-66-28.33-75-44.73l14.5-4.6c11.5,10.5,17,25.5,64,34.08,22.27,4.06,48.33-18.3,58.5-29.48l12.31,4.83C376,289.86,340.5,297.18,323,295.83Z" transform="translate(-137.42 -245.94)"/></g><g id="tShirtOutline"><path id="Body-2" data-name="Body" class="cls-3" d="M323.74,295.36c-40.21-2.63-66.77-30.67-75-44.36L207.2,265.79l-69.2,37,19.67,78,49.53-12.32V541H429.36V368.48l49.53,12.32,17.48-78-67-37-32.05-9.86C389.54,270.17,364,298,323.74,295.36Z" transform="translate(-137.42 -245.94)"/><path class="cls-3" d="M430,266c-8.3,23.26-19.92,76.42,0,103" transform="translate(-137.42 -245.94)"/><path class="cls-3" d="M206.6,266c7,25.23,16.69,81.11,0,102.83" transform="translate(-137.42 -245.94)"/><line class="cls-4" x1="69.58" y1="285.56" x2="292.58" y2="285.56"/><line class="cls-4" x1="69.58" y1="288.56" x2="292.58" y2="288.56"/><line class="cls-4" x1="8.06" y1="52.94" x2="29.06" y2="132.53"/><line class="cls-5" x1="352.2" y1="52.95" x2="334.09" y2="133.25"/><line class="cls-4" x1="5.47" y1="54.38" x2="26.22" y2="132.84"/><line class="cls-4" x1="354.84" y1="54.3" x2="336.95" y2="133.46"/><path id="Neck-2" data-name="Neck" class="cls-3" d="M323,295.83c-36-2.79-66-28.33-75-44.73l14.5-4.6c11.5,10.5,17,25.5,64,34.08,22.27,4.06,48.33-18.3,58.5-29.48l12.31,4.83C376,289.86,340.5,297.18,323,295.83Z" transform="translate(-137.42 -245.94)"/></g></svg>