<?xml version="1.0" encoding="utf-8"?>
<!-- Generator: Adobe Illustrator 25.0.0, SVG Export Plug-In . SVG Version: 6.00 Build 0)  -->
<svg version="1.1" id="Waves" xmlns="http://www.w3.org/2000/svg" xmlns:xlink="http://www.w3.org/1999/xlink" x="0px" y="0px"
	 viewBox="0 0 2426 1395" style="enable-background:new 0 0 2426 1395;" xml:space="preserve">
<style type="text/css">
	.st0{fill:none;stroke:#000000;stroke-miterlimit:10;}
</style>
<path class="st0" d="M748,787.7c72,0,72,91.5,144.1,91.5s72.1-91.5,144.1-91.5c72.1,0,72.1,91.5,144.1,91.5c72,0,72-91.5,144.1-91.5
	c72,0,72,91.5,144.1,91.5s72.1-91.5,144.1-91.5c72.1,0,72.1,91.5,144.1,91.5c72.1,0,72.1-91.5,144.1-91.5c72,0,72,91.5,144.1,91.5
	c72,0,72-91.5,144.1-91.5"/>
<path class="st0" d="M748,698.7c72,0,72,91.5,144.1,91.5s72.1-91.5,144.1-91.5c72.1,0,72.1,91.5,144.1,91.5c72,0,72-91.5,144.1-91.5
	c72,0,72,91.5,144.1,91.5s72.1-91.5,144.1-91.5c72.1,0,72.1,91.5,144.1,91.5c72.1,0,72.1-91.5,144.1-91.5c72,0,72,91.5,144.1,91.5
	c72,0,72-91.5,144.1-91.5"/>
<path class="st0" d="M748,885.7c72,0,72,91.5,144.1,91.5s72.1-91.5,144.1-91.5c72.1,0,72.1,91.5,144.1,91.5c72,0,72-91.5,144.1-91.5
	c72,0,72,91.5,144.1,91.5s72.1-91.5,144.1-91.5c72.1,0,72.1,91.5,144.1,91.5c72.1,0,72.1-91.5,144.1-91.5c72,0,72,91.5,144.1,91.5
	c72,0,72-91.5,144.1-91.5"/>
</svg>
